<?xml version="1.0" encoding="utf-8"?>
<!-- Generator: Adobe Illustrator 24.1.2, SVG Export Plug-In . SVG Version: 6.00 Build 0)  -->
<svg version="1.1" xmlns="http://www.w3.org/2000/svg" xmlns:xlink="http://www.w3.org/1999/xlink" x="0px" y="0px"
	 viewBox="0 0 100 100" style="enable-background:new 0 0 100 100;" xml:space="preserve">
<style type="text/css">
	.st0{fill:#FFFFFF;stroke:#000000;stroke-width:3;stroke-miterlimit:10;}
	.st1{font-family:'JosefinSans-Regular';}
	.st2{font-size:18px;}
	.st3{fill:none;stroke:#000000;stroke-miterlimit:10;}
</style>
<g id="Layer_1">
	<path class="st0" d="M88.42,68.41H13.23c-1.1,0-2-0.9-2-2v-43.9c0-1.1,0.9-2,2-2h75.19c1.1,0,2,0.9,2,2v43.9
		C90.42,67.51,89.52,68.41,88.42,68.41z"/>
</g>
<g id="Layer_5">
	<text transform="matrix(1 0 0 1 39.5477 50.0002)" class="st1 st2">CT</text>
</g>
<g id="Layer_2">
	<path class="st0" d="M94.48,68.86H7.36c-1.65,0-3,1.35-3,3v5.28c0,0.55,0.45,1,1,1h91.11c0.55,0,1-0.45,1-1v-5.28
		C97.48,70.21,96.13,68.86,94.48,68.86z"/>
</g>
<g id="Layer_3">
	<line class="st3" x1="35.64" y1="29.27" x2="18.25" y2="43.86"/>
	<line class="st3" x1="35.64" y1="57.96" x2="18.25" y2="43.36"/>
</g>
<g id="Layer_4">
	<line class="st3" x1="65.44" y1="57.95" x2="82.84" y2="43.36"/>
	<line class="st3" x1="65.46" y1="29.27" x2="82.84" y2="43.87"/>
</g>
</svg>
